<svg xmlns="http://www.w3.org/2000/svg" width="600" height="600" viewBox="0 0 600 600">
<rect width="600" height="600" fill="#0b0d0e"/>
<g opacity="0.28">
  <path d="M0 120 C80 60 150 160 240 110 C310 75 420 140 600 80 L600 0 L0 0 Z" fill="#2f3a22"/>
  <path d="M0 260 C120 210 180 330 300 260 C380 220 470 300 600 240 L600 150 C430 210 330 150 250 190 C160 235 80 170 0 220 Z" fill="#4a4a30"/>
  <path d="M0 420 C90 360 220 460 320 410 C410 370 500 450 600 380 L600 300 C480 345 400 320 330 350 C240 395 120 320 0 360 Z" fill="#6a5a33"/>
  <path d="M0 600 L600 600 L600 480 C470 540 390 500 320 525 C230 560 110 520 0 560 Z" fill="#2b2c1d"/>
</g>
<g opacity="0.18">
  <circle cx="120" cy="160" r="55" fill="#171a16"/>
  <circle cx="460" cy="120" r="60" fill="#171a16"/>
  <circle cx="210" cy="360" r="70" fill="#171a16"/>
  <circle cx="520" cy="420" r="75" fill="#171a16"/>
</g>
</svg>
